<mxfile host="app.diagrams.net" modified="2024-04-21T22:39:35.241Z" agent="Mozilla/5.0 (Macintosh; Intel Mac OS X 10_15_7) AppleWebKit/537.36 (KHTML, like Gecko) Chrome/121.0.0.0 Safari/537.36" etag="zXuV3oSopMnoYxW3W5BD" version="23.1.5" type="github">
  <diagram name="Page-1" id="-oKc7pRh8jwXHV_G5y64">
    <mxGraphModel dx="1026" dy="636" grid="1" gridSize="10" guides="1" tooltips="1" connect="1" arrows="1" fold="1" page="1" pageScale="1" pageWidth="850" pageHeight="1100" math="0" shadow="0">
      <root>
        <mxCell id="0" />
        <mxCell id="1" parent="0" />
        <mxCell id="ExvomEdr3O3iMhSIufZM-1" value="&lt;font style=&quot;font-size: 20px;&quot;&gt;App&lt;/font&gt;" style="rounded=0;whiteSpace=wrap;html=1;" vertex="1" parent="1">
          <mxGeometry x="365" y="137" width="120" height="60" as="geometry" />
        </mxCell>
        <mxCell id="ExvomEdr3O3iMhSIufZM-5" style="edgeStyle=orthogonalEdgeStyle;rounded=0;orthogonalLoop=1;jettySize=auto;html=1;exitX=0.5;exitY=0;exitDx=0;exitDy=0;entryX=0;entryY=0.25;entryDx=0;entryDy=0;" edge="1" parent="1" source="ExvomEdr3O3iMhSIufZM-2" target="ExvomEdr3O3iMhSIufZM-1">
          <mxGeometry relative="1" as="geometry" />
        </mxCell>
        <mxCell id="ExvomEdr3O3iMhSIufZM-2" value="&lt;font style=&quot;font-size: 20px;&quot;&gt;Calendar&lt;/font&gt;" style="rounded=0;whiteSpace=wrap;html=1;" vertex="1" parent="1">
          <mxGeometry x="145" y="287" width="220" height="70" as="geometry" />
        </mxCell>
        <mxCell id="ExvomEdr3O3iMhSIufZM-4" style="edgeStyle=orthogonalEdgeStyle;rounded=0;orthogonalLoop=1;jettySize=auto;html=1;" edge="1" parent="1" target="ExvomEdr3O3iMhSIufZM-2">
          <mxGeometry relative="1" as="geometry">
            <mxPoint x="170" y="427" as="sourcePoint" />
          </mxGeometry>
        </mxCell>
        <mxCell id="ExvomEdr3O3iMhSIufZM-3" value="&lt;font style=&quot;font-size: 20px;&quot;&gt;CalendarComponent&lt;/font&gt;" style="rounded=0;whiteSpace=wrap;html=1;" vertex="1" parent="1">
          <mxGeometry x="110" y="420" width="210" height="60" as="geometry" />
        </mxCell>
        <mxCell id="ExvomEdr3O3iMhSIufZM-7" style="edgeStyle=orthogonalEdgeStyle;rounded=0;orthogonalLoop=1;jettySize=auto;html=1;entryX=1;entryY=0.5;entryDx=0;entryDy=0;" edge="1" parent="1" source="ExvomEdr3O3iMhSIufZM-6" target="ExvomEdr3O3iMhSIufZM-2">
          <mxGeometry relative="1" as="geometry">
            <Array as="points">
              <mxPoint x="370" y="417" />
              <mxPoint x="370" y="367" />
              <mxPoint x="430" y="367" />
              <mxPoint x="430" y="322" />
            </Array>
          </mxGeometry>
        </mxCell>
        <mxCell id="ExvomEdr3O3iMhSIufZM-6" value="&lt;font style=&quot;font-size: 20px;&quot;&gt;TaskList&lt;/font&gt;" style="rounded=0;whiteSpace=wrap;html=1;" vertex="1" parent="1">
          <mxGeometry x="390" y="387" width="120" height="60" as="geometry" />
        </mxCell>
        <mxCell id="ExvomEdr3O3iMhSIufZM-9" style="edgeStyle=orthogonalEdgeStyle;rounded=0;orthogonalLoop=1;jettySize=auto;html=1;entryX=0.5;entryY=1;entryDx=0;entryDy=0;" edge="1" parent="1" source="ExvomEdr3O3iMhSIufZM-8" target="ExvomEdr3O3iMhSIufZM-6">
          <mxGeometry relative="1" as="geometry" />
        </mxCell>
        <mxCell id="ExvomEdr3O3iMhSIufZM-8" value="&lt;font style=&quot;font-size: 20px;&quot;&gt;AddTask&lt;/font&gt;" style="rounded=0;whiteSpace=wrap;html=1;" vertex="1" parent="1">
          <mxGeometry x="390" y="527" width="120" height="60" as="geometry" />
        </mxCell>
        <mxCell id="ExvomEdr3O3iMhSIufZM-11" style="edgeStyle=orthogonalEdgeStyle;rounded=0;orthogonalLoop=1;jettySize=auto;html=1;entryX=1;entryY=0.25;entryDx=0;entryDy=0;" edge="1" parent="1" source="ExvomEdr3O3iMhSIufZM-10" target="ExvomEdr3O3iMhSIufZM-1">
          <mxGeometry relative="1" as="geometry" />
        </mxCell>
        <mxCell id="ExvomEdr3O3iMhSIufZM-10" value="&lt;font style=&quot;font-size: 20px;&quot;&gt;ContactForm&lt;/font&gt;" style="rounded=0;whiteSpace=wrap;html=1;" vertex="1" parent="1">
          <mxGeometry x="560" y="247" width="150" height="70" as="geometry" />
        </mxCell>
        <mxCell id="ExvomEdr3O3iMhSIufZM-13" style="edgeStyle=orthogonalEdgeStyle;rounded=0;orthogonalLoop=1;jettySize=auto;html=1;exitX=1;exitY=0.5;exitDx=0;exitDy=0;entryX=0.5;entryY=0;entryDx=0;entryDy=0;" edge="1" parent="1" source="ExvomEdr3O3iMhSIufZM-12" target="ExvomEdr3O3iMhSIufZM-10">
          <mxGeometry relative="1" as="geometry" />
        </mxCell>
        <mxCell id="ExvomEdr3O3iMhSIufZM-15" style="edgeStyle=orthogonalEdgeStyle;rounded=0;orthogonalLoop=1;jettySize=auto;html=1;exitX=0.5;exitY=1;exitDx=0;exitDy=0;entryX=0.5;entryY=0;entryDx=0;entryDy=0;" edge="1" parent="1" source="ExvomEdr3O3iMhSIufZM-12" target="ExvomEdr3O3iMhSIufZM-1">
          <mxGeometry relative="1" as="geometry" />
        </mxCell>
        <mxCell id="ExvomEdr3O3iMhSIufZM-12" value="&lt;font style=&quot;font-size: 20px;&quot;&gt;NavBar&lt;/font&gt;" style="rounded=0;whiteSpace=wrap;html=1;" vertex="1" parent="1">
          <mxGeometry x="365" y="20" width="120" height="60" as="geometry" />
        </mxCell>
        <mxCell id="ExvomEdr3O3iMhSIufZM-14" style="edgeStyle=orthogonalEdgeStyle;rounded=0;orthogonalLoop=1;jettySize=auto;html=1;exitX=0;exitY=0.5;exitDx=0;exitDy=0;entryX=0.118;entryY=-0.014;entryDx=0;entryDy=0;entryPerimeter=0;" edge="1" parent="1" source="ExvomEdr3O3iMhSIufZM-12" target="ExvomEdr3O3iMhSIufZM-2">
          <mxGeometry relative="1" as="geometry" />
        </mxCell>
      </root>
    </mxGraphModel>
  </diagram>
</mxfile>
